<svg width="284.514160" height="38.000000" viewBox="0 0 284.514 38" fill="none" xmlns="http://www.w3.org/2000/svg" xmlns:xlink="http://www.w3.org/1999/xlink">
	<desc>
			Created with Pixso.
	</desc>
	<defs>
		<clipPath id="clip16_6">
			<rect id="可能大概差不多是最终修改 svg合并" width="282.000000" height="38.000000" fill="white" fill-opacity="0"/>
		</clipPath>
	</defs>
	<rect width="284.514160" height="38.000000"/>
	<g clip-path="url(#clip16_6)">
		<path id="path" d="M59.12 2.72L59.12 27.13C59.12 27.39 59.16 27.63 59.26 27.86C59.35 28.07 59.49 28.27 59.67 28.45C59.85 28.63 60.04 28.76 60.26 28.86C60.48 28.95 60.72 29 60.98 29C61.24 29 61.49 28.95 61.71 28.86C61.92 28.76 62.12 28.63 62.3 28.45C62.48 28.27 62.61 28.07 62.71 27.86C62.8 27.63 62.85 27.39 62.85 27.13L62.85 8.17L78.55 28.34C78.79 28.6 79.05 28.79 79.35 28.89C79.54 28.96 79.75 29 79.97 29C80.17 29 80.36 28.97 80.55 28.91C80.59 28.89 80.64 28.87 80.69 28.85C80.85 28.79 80.99 28.71 81.12 28.61C81.18 28.56 81.24 28.51 81.3 28.46C81.37 28.38 81.44 28.29 81.51 28.21C81.58 28.1 81.64 27.99 81.68 27.87C81.78 27.65 81.83 27.4 81.83 27.13L81.83 2.72C81.83 2.46 81.78 2.22 81.68 2C81.6 1.78 81.47 1.58 81.29 1.4C81.11 1.23 80.91 1.1 80.68 1C80.47 0.91 80.23 0.86 79.97 0.86C79.71 0.86 79.46 0.91 79.24 1C79.02 1.1 78.83 1.23 78.65 1.4C78.47 1.58 78.33 1.78 78.25 2C78.15 2.22 78.11 2.46 78.11 2.72L78.11 21.72L62.43 1.55C62.15 1.25 61.85 1.04 61.52 0.94C61.34 0.89 61.16 0.86 60.98 0.86C60.71 0.86 60.47 0.91 60.25 1C60.13 1.06 60.01 1.12 59.91 1.18C59.82 1.25 59.74 1.32 59.66 1.4C59.6 1.46 59.54 1.51 59.5 1.57C59.4 1.7 59.32 1.84 59.26 1.99C59.24 2.05 59.22 2.1 59.21 2.14C59.15 2.33 59.12 2.52 59.12 2.72ZM84.63 11.96L90.96 27.17L87.77 34.78C87.71 34.91 87.66 35.06 87.64 35.2C87.61 35.32 87.6 35.45 87.6 35.59C87.6 35.91 87.66 36.2 87.79 36.46C87.87 36.62 87.98 36.77 88.12 36.91C88.25 37.04 88.4 37.15 88.55 37.24C88.81 37.36 89.1 37.43 89.43 37.43C89.57 37.43 89.72 37.41 89.86 37.38C90.07 37.32 90.27 37.23 90.46 37.09C90.61 36.98 90.74 36.86 90.85 36.72C90.97 36.56 91.08 36.39 91.17 36.2L101.27 11.96C101.4 11.66 101.47 11.39 101.47 11.14C101.47 11 101.45 10.86 101.42 10.74C101.39 10.63 101.36 10.53 101.32 10.43C101.24 10.26 101.14 10.1 101.03 9.96C100.99 9.92 100.96 9.87 100.92 9.83C100.86 9.77 100.79 9.72 100.73 9.66C100.61 9.58 100.48 9.51 100.34 9.45C100.13 9.37 99.85 9.3 99.62 9.3C99.14 9.3 98.77 9.41 98.51 9.62C98.28 9.83 98.02 10.17 97.9 10.49L92.96 22.32L88.02 10.52C87.88 10.18 87.68 9.9 87.43 9.7C87.39 9.67 87.34 9.64 87.3 9.62C87.1 9.49 86.9 9.4 86.68 9.34C86.55 9.32 86.42 9.3 86.28 9.3C86.04 9.3 85.82 9.34 85.62 9.41C85.48 9.47 85.29 9.58 85.17 9.66C85.1 9.72 85.04 9.77 84.98 9.83C84.92 9.89 84.87 9.95 84.83 10.02C84.73 10.14 84.65 10.28 84.59 10.43C84.55 10.51 84.53 10.6 84.51 10.69C84.47 10.83 84.45 10.98 84.45 11.14C84.45 11.2 84.45 11.27 84.46 11.34C84.48 11.54 84.53 11.75 84.63 11.96ZM120.19 26.82L120.19 27.17C120.19 27.41 120.23 27.64 120.32 27.86C120.4 28.08 120.54 28.28 120.72 28.46C120.88 28.62 121.07 28.75 121.28 28.84C121.5 28.94 121.75 29 122.03 29C122.28 29 122.51 28.95 122.73 28.86C122.94 28.77 123.14 28.64 123.33 28.46C123.51 28.28 123.64 28.08 123.73 27.86C123.81 27.64 123.86 27.41 123.86 27.17L123.86 19.15C123.86 17.79 123.62 16.53 123.14 15.37C122.66 14.21 121.94 13.15 120.98 12.19C119.96 11.18 118.83 10.44 117.6 9.95C116.49 9.52 115.3 9.3 114.02 9.3C112.66 9.3 111.4 9.55 110.24 10.03C109.08 10.51 108.02 11.23 107.06 12.19C106.1 13.15 105.38 14.21 104.9 15.37C104.41 16.53 104.17 17.79 104.17 19.15C104.17 20.51 104.41 21.77 104.9 22.93C105.38 24.09 106.1 25.15 107.06 26.11C108.02 27.07 109.08 27.79 110.24 28.27C111.4 28.75 112.66 29 114.02 29C115.19 29 116.29 28.81 117.32 28.43C117.59 28.33 117.85 28.23 118.11 28.11C118.84 27.77 119.53 27.34 120.19 26.82ZM111.96 13.33C112.6 13.09 113.29 12.98 114.02 12.98C114.66 12.98 115.28 13.07 115.88 13.27C116.06 13.33 116.25 13.39 116.43 13.47C116.98 13.71 117.48 14.02 117.93 14.39C118.09 14.52 118.24 14.66 118.39 14.81C118.56 14.99 118.73 15.18 118.89 15.38C119.21 15.8 119.48 16.26 119.7 16.77C119.78 16.96 119.86 17.16 119.92 17.36C120.1 17.93 120.19 18.53 120.19 19.15C120.19 19.77 120.1 20.37 119.92 20.94C119.86 21.14 119.78 21.33 119.7 21.53C119.48 22.03 119.21 22.5 118.89 22.92C118.73 23.12 118.56 23.31 118.39 23.49C118.24 23.63 118.09 23.77 117.93 23.91C117.48 24.28 116.98 24.59 116.43 24.83C116.25 24.91 116.06 24.98 115.88 25.04C115.28 25.22 114.66 25.32 114.02 25.32C113.29 25.32 112.6 25.2 111.96 24.98C111.84 24.93 111.71 24.88 111.59 24.83C110.98 24.56 110.44 24.22 109.97 23.81C109.85 23.71 109.74 23.6 109.64 23.5C109.52 23.38 109.42 23.27 109.32 23.15C108.92 22.67 108.59 22.14 108.33 21.54C108.23 21.32 108.15 21.09 108.09 20.86C107.93 20.31 107.85 19.74 107.85 19.15C107.85 18.55 107.93 17.98 108.09 17.44C108.15 17.21 108.23 16.98 108.33 16.76C108.59 16.16 108.92 15.62 109.32 15.15C109.42 15.03 109.52 14.91 109.64 14.8C109.74 14.69 109.85 14.59 109.97 14.5C110.44 14.08 110.98 13.73 111.59 13.47C111.71 13.41 111.84 13.37 111.96 13.33Z" fill="#000000" fill-opacity="1.000000" fill-rule="evenodd"/>
		<path id="path" d="M1.9 0.87C2.16 0.87 2.41 0.91 2.62 1C2.84 1.1 3.03 1.23 3.21 1.41C3.39 1.59 3.53 1.78 3.62 2C3.72 2.22 3.76 2.47 3.76 2.73L3.76 25.26L16.8 25.26C17.06 25.26 17.31 25.31 17.53 25.41C17.75 25.49 17.95 25.62 18.12 25.8C18.3 25.98 18.44 26.19 18.53 26.41C18.62 26.63 18.66 26.87 18.66 27.12C18.66 27.38 18.62 27.63 18.53 27.86C18.44 28.07 18.3 28.27 18.12 28.45C17.95 28.63 17.75 28.76 17.53 28.86C17.31 28.95 17.06 29 16.8 29L1.9 29C1.63 29 1.38 28.94 1.16 28.84C1.05 28.8 0.93 28.74 0.83 28.66C0.74 28.6 0.66 28.53 0.58 28.46C0.5 28.38 0.43 28.29 0.37 28.21C0.29 28.1 0.23 27.99 0.17 27.87C0.08 27.65 0.04 27.4 0.04 27.12L0.04 2.73C0.04 2.47 0.08 2.22 0.17 2C0.27 1.78 0.4 1.59 0.58 1.41C0.76 1.23 0.95 1.1 1.17 1C1.39 0.91 1.64 0.87 1.9 0.87ZM33.29 9.98C34.49 8.79 36.09 7.52 36.98 8.16C37.89 8.83 37.72 11.25 37.43 13.12C37.98 13.83 38.43 14.57 38.75 15.37C39.23 16.53 39.47 17.79 39.49 19.15C39.49 20.59 39.22 21.91 38.69 23.12C38.21 24.21 37.51 25.21 36.59 26.11C35.57 27.12 34.45 27.86 33.22 28.33C32.11 28.77 30.91 29 29.63 29C28.27 29 27.02 28.75 25.86 28.26C24.7 27.78 23.63 27.07 22.67 26.11C21.71 25.15 20.99 24.08 20.51 22.92C20.03 21.76 19.79 20.51 19.79 19.15C19.79 17.79 20.03 16.53 20.51 15.37C20.83 14.61 21.24 13.9 21.76 13.22C21.46 11.34 21.27 8.84 22.21 8.16C23.1 7.52 25.91 10 25.91 10C25.91 10 28.3 9.3 29.63 9.3C30.91 9.3 32.17 9.55 33.29 9.98ZM43.95 0.87C44.26 0.87 44.54 0.93 44.79 1.05C44.96 1.14 45.11 1.26 45.25 1.41C45.41 1.56 45.53 1.73 45.61 1.91C45.72 2.15 45.78 2.42 45.78 2.71L45.78 25.32L46.62 25.32C46.87 25.32 47.1 25.36 47.32 25.45C47.53 25.54 47.73 25.68 47.91 25.86C48.07 26.02 48.2 26.21 48.29 26.41C48.39 26.63 48.45 26.89 48.45 27.16C48.45 27.41 48.4 27.64 48.32 27.86C48.23 28.08 48.09 28.28 47.91 28.46C47.73 28.63 47.53 28.77 47.32 28.86C47.1 28.95 46.87 29 46.62 29L43.92 29C43.67 29 43.43 28.95 43.21 28.86C43.01 28.76 42.82 28.63 42.65 28.46C42.47 28.28 42.34 28.09 42.25 27.87C42.16 27.65 42.12 27.42 42.12 27.16L42.12 2.71C42.12 2.42 42.17 2.15 42.29 1.91C42.37 1.73 42.49 1.56 42.63 1.41C42.77 1.26 42.93 1.14 43.11 1.05C43.35 0.93 43.63 0.87 43.95 0.87ZM53.54 9.3C53.79 9.3 54.02 9.35 54.24 9.44C54.46 9.52 54.66 9.66 54.83 9.83C55 10 55.13 10.18 55.23 10.38C55.33 10.62 55.38 10.87 55.38 11.15L55.38 27.15C55.38 27.42 55.33 27.67 55.23 27.91C55.13 28.11 55 28.29 54.83 28.46C54.65 28.63 54.46 28.77 54.24 28.86C54.02 28.95 53.79 29 53.54 29C53.29 29 53.06 28.95 52.84 28.86C52.63 28.77 52.43 28.63 52.25 28.46C52.09 28.29 51.96 28.11 51.87 27.91C51.77 27.67 51.71 27.42 51.71 27.15L51.71 11.15C51.71 10.87 51.77 10.62 51.87 10.38C51.96 10.18 52.09 10 52.25 9.83C52.43 9.65 52.63 9.52 52.84 9.44C53.06 9.35 53.29 9.3 53.54 9.3ZM29.63 12.98C28.91 12.98 28.22 13.09 27.58 13.33C27.46 13.37 27.33 13.41 27.21 13.46C26.61 13.73 26.06 14.08 25.58 14.5C25.47 14.59 25.36 14.69 25.26 14.79C25.15 14.91 25.04 15.03 24.94 15.15C24.54 15.62 24.21 16.15 23.96 16.75C23.86 16.98 23.77 17.21 23.71 17.44C23.55 17.98 23.46 18.55 23.46 19.15C23.46 19.74 23.55 20.31 23.71 20.86C23.77 21.09 23.86 21.32 23.96 21.54C24.21 22.14 24.54 22.67 24.94 23.15C25.04 23.27 25.15 23.38 25.26 23.5C25.36 23.6 25.47 23.7 25.58 23.8C26.06 24.22 26.61 24.56 27.21 24.83C27.33 24.88 27.46 24.93 27.58 24.98C28.22 25.2 28.91 25.32 29.63 25.32C30.29 25.32 30.91 25.22 31.5 25.04C31.68 24.98 31.86 24.91 32.04 24.83C32.6 24.59 33.1 24.28 33.54 23.91C33.7 23.77 33.86 23.63 34 23.49C34.18 23.31 34.35 23.11 34.5 22.91C34.83 22.5 35.11 22.03 35.33 21.53C35.41 21.33 35.48 21.14 35.54 20.94C35.72 20.37 35.8 19.77 35.8 19.15C35.8 18.53 35.72 17.93 35.54 17.36C35.48 17.16 35.41 16.96 35.33 16.76C35.11 16.26 34.83 15.79 34.5 15.37C34.35 15.17 34.18 14.98 34 14.8C33.86 14.66 33.7 14.52 33.54 14.38C33.1 14.02 32.6 13.71 32.04 13.46C31.86 13.39 31.68 13.32 31.5 13.26C30.91 13.07 30.29 12.98 29.63 12.98ZM53.54 3.65C53.84 3.65 54.12 3.7 54.37 3.8C54.63 3.91 54.86 4.07 55.08 4.28C55.28 4.48 55.44 4.71 55.54 4.96C55.65 5.22 55.71 5.5 55.71 5.8C55.71 6.1 55.65 6.38 55.54 6.63C55.44 6.89 55.28 7.12 55.08 7.33C54.86 7.54 54.63 7.7 54.37 7.8C54.12 7.91 53.84 7.96 53.54 7.96C53.24 7.96 52.96 7.91 52.71 7.8C52.45 7.7 52.22 7.54 52.01 7.33C51.8 7.12 51.64 6.89 51.54 6.63C51.44 6.38 51.38 6.1 51.38 5.8C51.38 5.5 51.44 5.22 51.54 4.96C51.64 4.71 51.8 4.48 52.01 4.28C52.22 4.07 52.45 3.91 52.71 3.8C52.96 3.7 53.24 3.65 53.54 3.65Z" fill="#000000" fill-opacity="1.000000" fill-rule="nonzero"/>
		<path id="path" d="M134.82 2.72L134.82 27.13C134.82 27.39 134.86 27.63 134.96 27.86C135.04 28.07 135.17 28.27 135.36 28.45C135.53 28.63 135.74 28.76 135.96 28.86C136.17 28.95 136.42 29 136.67 29C136.94 29 137.18 28.95 137.41 28.86C137.62 28.76 137.82 28.63 138 28.45C138.17 28.27 138.31 28.07 138.39 27.86C138.49 27.63 138.53 27.39 138.53 27.13L138.53 8.17L154.24 28.34C154.48 28.6 154.75 28.79 155.05 28.89C155.24 28.96 155.45 29 155.67 29C155.87 29 156.06 28.97 156.24 28.91C156.29 28.89 156.34 28.87 156.39 28.85C156.55 28.79 156.69 28.71 156.82 28.61C156.88 28.56 156.93 28.51 156.99 28.46C157.07 28.38 157.14 28.29 157.2 28.21C157.27 28.1 157.33 27.99 157.39 27.87C157.48 27.65 157.53 27.4 157.53 27.13L157.53 2.72C157.53 2.46 157.48 2.22 157.39 2C157.29 1.78 157.16 1.58 156.98 1.4C156.8 1.23 156.6 1.1 156.39 1C156.17 0.91 155.92 0.86 155.67 0.86C155.4 0.86 155.16 0.91 154.94 1C154.72 1.1 154.53 1.23 154.35 1.4C154.17 1.58 154.03 1.78 153.94 2C153.84 2.22 153.8 2.46 153.8 2.72L153.8 21.72L138.12 1.55C137.85 1.25 137.55 1.04 137.22 0.94C137.04 0.89 136.86 0.86 136.67 0.86C136.41 0.86 136.16 0.91 135.94 1C135.82 1.06 135.71 1.12 135.61 1.18C135.51 1.25 135.42 1.32 135.35 1.4C135.29 1.46 135.24 1.51 135.2 1.57C135.1 1.7 135.02 1.84 134.96 1.99C134.94 2.05 134.92 2.1 134.89 2.14C134.84 2.33 134.82 2.52 134.82 2.72ZM185.23 9.3L184.41 9.3C184.18 9.3 183.97 9.34 183.78 9.41C183.54 9.5 183.32 9.64 183.13 9.83C182.95 10.02 182.81 10.22 182.73 10.44C182.64 10.65 182.6 10.88 182.6 11.14C182.6 11.41 182.65 11.66 182.75 11.89C182.83 12.09 182.96 12.28 183.13 12.45C183.32 12.64 183.54 12.78 183.78 12.87C183.97 12.94 184.18 12.98 184.41 12.98L185.23 12.98L185.23 21.82C185.23 24.2 185.82 25.99 187.02 27.19C188.22 28.39 190.02 29 192.42 29C192.68 29 192.91 28.95 193.13 28.86C193.34 28.76 193.53 28.63 193.7 28.46C193.86 28.3 193.98 28.12 194.07 27.93C194.17 27.69 194.23 27.43 194.23 27.15C194.23 26.89 194.18 26.65 194.1 26.44C194 26.22 193.87 26.03 193.7 25.86C193.53 25.68 193.34 25.54 193.13 25.46C192.91 25.36 192.68 25.32 192.42 25.32C191.24 25.32 190.36 25.02 189.78 24.44C189.2 23.85 188.91 22.98 188.91 21.82L188.91 12.98L191.1 12.98C191.36 12.98 191.59 12.93 191.81 12.84C192.02 12.75 192.21 12.62 192.39 12.45C192.54 12.28 192.66 12.1 192.75 11.91C192.85 11.67 192.91 11.42 192.91 11.14C192.91 10.88 192.86 10.64 192.78 10.42C192.69 10.21 192.56 10.02 192.39 9.83C192.21 9.66 192.02 9.53 191.81 9.45C191.59 9.35 191.36 9.3 191.1 9.3L188.91 9.3L188.91 2.7C188.91 2.44 188.86 2.21 188.77 1.99C188.68 1.78 188.55 1.58 188.37 1.4C188.19 1.22 187.99 1.09 187.77 0.99C187.55 0.91 187.32 0.86 187.08 0.86C186.8 0.86 186.54 0.91 186.32 1.01C186.12 1.11 185.93 1.24 185.77 1.4C185.59 1.58 185.45 1.78 185.36 1.99C185.27 2.21 185.23 2.44 185.23 2.7L185.23 9.3ZM176.05 23.66C175.79 23.52 175.49 23.46 175.16 23.46C174.93 23.46 174.72 23.5 174.52 23.58C174.31 23.65 174.12 23.76 173.95 23.91C173.44 24.34 172.9 24.67 172.32 24.91C172.26 24.93 172.21 24.95 172.15 24.97C171.51 25.2 170.8 25.32 170.03 25.32C169.51 25.32 169.01 25.26 168.53 25.14C168.37 25.1 168.21 25.05 168.07 25C167.59 24.84 167.14 24.64 166.73 24.38C166.59 24.3 166.46 24.21 166.34 24.12C166.18 24 166.04 23.88 165.9 23.76C165.56 23.46 165.25 23.12 164.98 22.75C164.87 22.59 164.77 22.44 164.68 22.29C164.44 21.88 164.24 21.44 164.1 20.98L178.02 20.98C178.31 20.98 178.58 20.92 178.82 20.81C179 20.73 179.17 20.61 179.33 20.45C179.47 20.32 179.59 20.16 179.68 20C179.8 19.74 179.87 19.46 179.87 19.15C179.87 17.81 179.64 16.57 179.18 15.43C179.14 15.34 179.07 15.18 179.03 15.09C178.55 14.03 177.87 13.06 176.99 12.19C175.97 11.18 174.84 10.44 173.61 9.95C172.5 9.52 171.31 9.3 170.03 9.3C168.67 9.3 167.4 9.55 166.24 10.03C165.08 10.51 164.03 11.23 163.07 12.19C162.11 13.15 161.39 14.21 160.91 15.37C160.42 16.53 160.17 17.79 160.17 19.15C160.17 20.51 160.42 21.77 160.91 22.93C161.39 24.09 162.11 25.15 163.07 26.11C164.03 27.07 165.08 27.79 166.24 28.27C167.4 28.75 168.67 29 170.03 29C171.37 29 172.62 28.76 173.78 28.28C174.74 27.88 175.63 27.32 176.46 26.6C176.62 26.43 176.75 26.25 176.84 26.05C176.94 25.81 176.99 25.56 176.99 25.29C176.99 24.95 176.92 24.66 176.78 24.4C176.7 24.24 176.59 24.1 176.47 23.98C176.34 23.84 176.2 23.74 176.05 23.66ZM175.42 16.11C175.64 16.49 175.81 16.89 175.95 17.32L164.1 17.32C164.22 16.89 164.39 16.49 164.6 16.12C164.71 15.92 164.83 15.74 164.96 15.56C165.2 15.22 165.47 14.92 165.77 14.65C165.95 14.48 166.14 14.33 166.34 14.19C166.46 14.1 166.58 14.02 166.7 13.94C167.12 13.67 167.58 13.46 168.08 13.3C168.38 13.19 168.69 13.11 169.01 13.06C169.34 13 169.68 12.98 170.03 12.98C170.42 12.98 170.81 13.01 171.19 13.09C171.45 13.14 171.71 13.21 171.97 13.3C172.44 13.46 172.88 13.66 173.3 13.92C173.43 14 173.56 14.09 173.69 14.19C173.81 14.27 173.92 14.36 174.04 14.46C174.42 14.78 174.76 15.14 175.06 15.56C175.19 15.73 175.31 15.91 175.42 16.11Z" fill="#000000" fill-opacity="1.000000" fill-rule="evenodd"/>
		<path id="path" d="M220 9.3C220.23 9.3 220.45 9.34 220.66 9.41C220.8 9.47 220.99 9.58 221.11 9.66C221.17 9.72 221.24 9.77 221.3 9.83C221.34 9.87 221.37 9.92 221.41 9.96C221.52 10.1 221.62 10.26 221.7 10.42C221.74 10.52 221.77 10.63 221.8 10.74C221.83 10.86 221.85 10.99 221.85 11.13C221.85 11.35 221.8 11.59 221.71 11.83L216.38 27.82C216.32 27.98 216.25 28.12 216.17 28.25C216.07 28.41 215.94 28.54 215.8 28.66C215.52 28.88 215.14 29 214.66 29C214.41 29 214.18 28.95 213.97 28.87C213.83 28.81 213.69 28.73 213.57 28.63C213.28 28.42 213.08 28.18 212.98 27.9L209.33 16.95L205.71 27.82C205.67 27.92 205.63 28.01 205.59 28.11C205.47 28.32 205.3 28.5 205.08 28.66C204.97 28.74 204.86 28.8 204.74 28.84C204.5 28.94 204.25 29 203.99 29C203.71 29 203.45 28.94 203.21 28.83C203.1 28.79 203 28.73 202.91 28.66C202.7 28.51 202.54 28.33 202.42 28.13C202.35 28.03 202.3 27.93 202.27 27.82L196.94 11.83C196.86 11.57 196.82 11.34 196.82 11.13C196.82 10.98 196.83 10.83 196.87 10.69C196.89 10.6 196.92 10.51 196.96 10.42C197.02 10.28 197.09 10.14 197.19 10.01C197.23 9.95 197.28 9.89 197.34 9.83C197.4 9.77 197.46 9.72 197.53 9.66C197.65 9.58 197.78 9.51 197.92 9.45C198.12 9.37 198.4 9.3 198.64 9.3C199.06 9.3 199.41 9.4 199.69 9.59C199.95 9.77 200.15 10 200.26 10.25L203.99 21.34L207.56 10.66C207.72 10.15 207.98 9.79 208.34 9.57C208.61 9.39 208.94 9.3 209.33 9.3C209.7 9.3 210.02 9.39 210.3 9.55C210.65 9.77 210.91 10.14 211.09 10.66L214.66 21.37L218.35 10.33C218.38 10.21 218.43 10.1 218.49 10C218.59 9.84 218.73 9.7 218.91 9.58C219.19 9.4 219.55 9.3 220 9.3ZM238.26 9.94C239.45 8.76 241.02 7.53 241.9 8.16C242.79 8.81 242.65 11.12 242.38 12.96C242.99 13.71 243.47 14.51 243.83 15.37C244.3 16.53 244.54 17.79 244.56 19.15C244.56 20.59 244.29 21.91 243.76 23.12C243.28 24.21 242.58 25.21 241.68 26.11C240.65 27.12 239.52 27.86 238.3 28.33C237.18 28.77 235.99 29 234.71 29C233.35 29 232.09 28.75 230.93 28.26C229.77 27.78 228.71 27.07 227.75 26.11C226.79 25.15 226.07 24.08 225.59 22.92C225.11 21.76 224.87 20.51 224.87 19.15C224.87 17.79 225.11 16.53 225.59 15.37C225.87 14.67 226.25 14.01 226.71 13.39C226.4 11.48 226.17 8.86 227.13 8.16C228.03 7.51 229.67 8.83 230.88 10.05C232.04 9.57 233.35 9.3 234.71 9.3C235.97 9.3 237.15 9.52 238.26 9.94ZM257.14 9.3C257.66 9.3 258.21 9.34 258.81 9.41C259.39 9.48 259.94 9.61 260.44 9.79C260.94 9.97 261.35 10.22 261.68 10.54C261.79 10.64 261.88 10.76 261.96 10.88C262.1 11.14 262.17 11.43 262.17 11.76C262.17 11.97 262.13 12.17 262.07 12.36C262.05 12.4 262.03 12.45 262.01 12.49C261.94 12.66 261.85 12.82 261.74 12.96C261.7 13 261.66 13.04 261.63 13.08C261.57 13.14 261.5 13.19 261.44 13.25C261.32 13.33 261.19 13.4 261.04 13.46C260.85 13.54 260.56 13.61 260.32 13.61C260.1 13.61 259.84 13.54 259.54 13.41C258.81 13.12 258 12.98 257.14 12.98C256.47 12.98 255.83 13.08 255.23 13.28C255.06 13.33 254.9 13.39 254.74 13.46C254.17 13.7 253.66 14.01 253.21 14.38C253.05 14.51 252.91 14.64 252.78 14.78C252.64 14.92 252.5 15.06 252.38 15.21C252 15.67 251.7 16.18 251.46 16.74C251.38 16.9 251.32 17.07 251.27 17.23C251.07 17.83 250.97 18.47 250.97 19.15L250.97 27.16C250.97 27.41 250.92 27.64 250.84 27.86C250.75 28.08 250.62 28.28 250.44 28.46C250.26 28.64 250.06 28.77 249.84 28.86C249.62 28.95 249.39 29 249.15 29C248.87 29 248.61 28.94 248.39 28.83C248.19 28.75 248 28.62 247.84 28.46C247.66 28.28 247.52 28.08 247.43 27.86C247.34 27.64 247.3 27.41 247.3 27.16L247.3 11.13C247.3 10.88 247.34 10.65 247.43 10.44C247.52 10.22 247.66 10.01 247.84 9.83C248 9.67 248.19 9.54 248.39 9.45C248.61 9.35 248.87 9.3 249.15 9.3C249.39 9.3 249.62 9.35 249.84 9.44C250.06 9.52 250.26 9.65 250.44 9.83C250.62 10.01 250.75 10.22 250.84 10.44C250.92 10.65 250.97 10.88 250.97 11.13L250.97 11.49C251.62 10.97 252.31 10.54 253.05 10.2C253.31 10.08 253.57 9.97 253.84 9.87C254.87 9.49 255.97 9.3 257.14 9.3ZM266.06 0.87C266.3 0.87 266.53 0.91 266.75 1C266.97 1.09 267.17 1.23 267.35 1.41C267.51 1.57 267.64 1.75 267.73 1.95C267.82 2.18 267.88 2.43 267.88 2.71L267.88 16.42L278.4 9.58C278.5 9.52 278.61 9.46 278.73 9.41C278.93 9.34 279.14 9.3 279.38 9.3C279.61 9.3 279.83 9.34 280.04 9.41C280.18 9.47 280.37 9.58 280.49 9.66C280.55 9.72 280.62 9.77 280.68 9.83C280.72 9.87 280.75 9.92 280.79 9.96C280.9 10.1 281 10.26 281.07 10.42C281.12 10.52 281.15 10.63 281.18 10.74C281.21 10.86 281.23 10.99 281.23 11.13C281.23 11.57 281.12 11.93 280.91 12.21C280.81 12.36 280.68 12.48 280.51 12.58L273.16 17.37L280.72 25.87C280.92 26.1 281.06 26.35 281.14 26.62C281.2 26.79 281.23 26.97 281.23 27.16C281.23 27.3 281.21 27.43 281.18 27.55C281.15 27.66 281.12 27.77 281.07 27.87C281 28.04 280.9 28.19 280.79 28.33C280.75 28.37 280.72 28.42 280.68 28.46C280.62 28.51 280.55 28.57 280.49 28.62C280.37 28.71 280.24 28.78 280.1 28.84C279.89 28.92 279.61 29 279.38 29C279.06 29 278.78 28.93 278.54 28.79C278.4 28.72 278.26 28.63 278.15 28.51L270.03 19.4L267.88 20.79L267.88 27.15C267.88 27.39 267.84 27.61 267.76 27.83C267.67 28.05 267.53 28.26 267.35 28.45C267.16 28.63 266.95 28.77 266.73 28.87C266.52 28.95 266.29 29 266.06 29C265.78 28.99 265.54 28.94 265.32 28.84C265.1 28.75 264.91 28.62 264.75 28.45C264.56 28.26 264.42 28.05 264.32 27.83C264.25 27.61 264.21 27.39 264.21 27.15L264.21 2.71C264.21 2.43 264.26 2.18 264.35 1.95C264.45 1.76 264.58 1.57 264.75 1.41C264.91 1.24 265.1 1.11 265.29 1.01C265.52 0.91 265.78 0.87 266.06 0.87ZM234.71 12.98C233.99 12.98 233.3 13.09 232.66 13.33C232.53 13.37 232.41 13.41 232.29 13.46C231.68 13.73 231.14 14.08 230.66 14.5C230.54 14.59 230.44 14.69 230.34 14.79C230.22 14.91 230.12 15.03 230.02 15.15C229.61 15.62 229.28 16.16 229.03 16.75C228.93 16.98 228.84 17.21 228.78 17.44C228.62 17.98 228.54 18.55 228.54 19.15C228.54 19.74 228.62 20.31 228.78 20.86C228.84 21.09 228.93 21.32 229.03 21.54C229.28 22.14 229.61 22.67 230.02 23.15C230.12 23.27 230.22 23.38 230.34 23.5C230.44 23.6 230.54 23.7 230.66 23.8C231.14 24.22 231.68 24.56 232.29 24.83C232.41 24.88 232.53 24.93 232.66 24.98C233.3 25.2 233.99 25.32 234.71 25.32C235.36 25.32 235.98 25.22 236.57 25.04C236.75 24.98 236.94 24.91 237.12 24.83C237.67 24.59 238.17 24.28 238.62 23.91C238.78 23.77 238.93 23.63 239.08 23.49C239.26 23.31 239.42 23.11 239.58 22.91C239.9 22.5 240.18 22.03 240.4 21.53C240.48 21.33 240.56 21.14 240.62 20.94C240.79 20.37 240.88 19.77 240.88 19.15C240.88 18.53 240.79 17.93 240.62 17.36C240.56 17.16 240.48 16.96 240.4 16.76C240.18 16.26 239.9 15.79 239.58 15.37C239.42 15.17 239.26 14.98 239.08 14.8C238.93 14.66 238.78 14.52 238.62 14.38C238.17 14.02 237.67 13.71 237.12 13.46C236.94 13.39 236.75 13.32 236.57 13.26C235.98 13.07 235.36 12.98 234.71 12.98Z" fill="#000000" fill-opacity="1.000000" fill-rule="nonzero"/>
	</g>
</svg>
